<svg version="1.1" id="layer" x="0" y="0" xml:space="preserve" width="119.044" height="93.2"
     xmlns="http://www.w3.org/2000/svg">
    <path style="stroke-width:.924401;fill:#6ba5e7;fill-opacity:1"
          d="m92.715 26.6 6.495-15.2H86.989c-5.553 0-8.288 2.7-8.288 8.1 0 2.8 1.624 8.9 4.87 18.5 3.248 9.6 4.872 17.1 4.872 22.6 0 11.6-5.47 20.4-16.493 26.2-8.203 4.3-17.774 6.4-28.797 6.4-10.083 0-18.97-1.6-26.746-4.9C5.469 83.7 0 76.7 0 67.1c0-13.8 10.083-20.8 30.25-20.8H56.569c-.769 3.3-2.478 5.8-5.212 7.7-2.393 1.7-5.213 2.5-8.29 2.5h-4.186c-4.102 0-7.606.8-10.596 2.5-3.931 2.2-5.897 5.4-5.897 9.6 0 4.8 2.735 8.6 8.118 11.3 4.187 2.1 8.63 3.1 13.416 3.1 5.982 0 11.023-1.5 15.04-4.7 4.7-3.6 7.007-8.7 7.007-15.4 0-4.6-1.453-11.2-4.444-19.7-2.99-8.6-4.443-15.2-4.443-20 0-15 10.51-22.7 31.617-23.2h8.716c5.127 0 9.57.9 13.501 2.7 5.127 2.5 7.862 6.2 8.118 11.2.171 5-1.88 9.2-6.238 12.6h-20.08z"
          id="path1"/></svg>